<svg width="206" height="206" viewBox="0 0 206 206" fill="none" xmlns="http://www.w3.org/2000/svg">
<g filter="url(#filter0_d_2_6253)">
<rect x="81" y="77" width="44" height="44" rx="22" fill="#1D272F"/>
<rect x="81" y="77" width="44" height="44" rx="22" stroke="white" stroke-width="1.5"/>
</g>
<path d="M97.7602 109H108.24C111 109 112.1 107.31 112.23 105.25L112.75 96.99C112.89 94.83 111.17 93 109 93C108.39 93 107.83 92.65 107.55 92.11L106.83 90.66C106.37 89.75 105.17 89 104.15 89H101.86C100.83 89 99.6302 89.75 99.1702 90.66L98.4502 92.11C98.1702 92.65 97.6102 93 97.0002 93C94.8302 93 93.1102 94.83 93.2502 96.99L93.7702 105.25C93.8902 107.31 95.0002 109 97.7602 109Z" stroke="white" stroke-width="1.5" stroke-linecap="round" stroke-linejoin="round"/>
<path d="M101.5 95H104.5" stroke="white" stroke-width="1.5" stroke-linecap="round" stroke-linejoin="round"/>
<path d="M103 105C104.79 105 106.25 103.54 106.25 101.75C106.25 99.96 104.79 98.5 103 98.5C101.21 98.5 99.75 99.96 99.75 101.75C99.75 103.54 101.21 105 103 105Z" stroke="white" stroke-width="1.5" stroke-linecap="round" stroke-linejoin="round"/>
<defs>
<filter id="filter0_d_2_6253" x="0.25" y="0.25" width="205.5" height="205.5" filterUnits="userSpaceOnUse" color-interpolation-filters="sRGB">
<feFlood flood-opacity="0" result="BackgroundImageFix"/>
<feColorMatrix in="SourceAlpha" type="matrix" values="0 0 0 0 0 0 0 0 0 0 0 0 0 0 0 0 0 0 127 0" result="hardAlpha"/>
<feOffset dy="4"/>
<feGaussianBlur stdDeviation="40"/>
<feComposite in2="hardAlpha" operator="out"/>
<feColorMatrix type="matrix" values="0 0 0 0 0.654902 0 0 0 0 0.682353 0 0 0 0 0.756863 0 0 0 0.3 0"/>
<feBlend mode="normal" in2="BackgroundImageFix" result="effect1_dropShadow_2_6253"/>
<feBlend mode="normal" in="SourceGraphic" in2="effect1_dropShadow_2_6253" result="shape"/>
</filter>
</defs>
</svg>
